# AST/ASF file generated using VICON BodyLanguage
# -----------------------------------------------
:version 1.10
:name VICON
:units
  mass 1.0
  length 0.45
  angle deg
:documentation
   .ast/.asf automatically generated from VICON data using
   VICON BodyBuilder and BodyLanguage model FoxedUp or BRILLIANT.MOD
:root
   order TX TY TZ RX RY RZ
   axis XYZ
   position 0 0 0  
   orientation 0 0 0 
:bonedata
  begin
     id 1 
     name lhipjoint
     direction 0.645893 -0.654526 0.392961 
     length 2.38111 
     axis 0 0 0  XYZ
  end
  begin
     id 2 
     name lfemur
     direction 0.34202 -0.939693 0  
     length 6.6822  
     axis 0 0 20  XYZ
    dof rx ry rz
    limits (-160.0 20.0)
           (-70.0 70.0)
           (-60.0 70.0)
  end
  begin
     id 3 
     name ltibia
     direction 0.34202 -0.939693 0   
     length 6.93904   
     axis 0 0 20   XYZ
    dof rx
    limits (-10.0 170.0)
  end
  begin
     id 4 
     name lfoot
     direction 0.0694967 -0.190941 0.979138   
     length 2.13616   
     axis -90 7.62852e-016 20   XYZ
    dof rx rz
    limits (-45.0 90.0)
           (-70.0 20.0)
  end
  begin
     id 5 
     name ltoes
     direction 1.535e-011 -4.2202e-011 1   
     length 1.07536   
     axis -90 7.62852e-016 20   XYZ
    dof rx
    limits (-90.0 20.0)
  end
  begin
     id 6 
     name rhipjoint
     direction -0.700219 -0.612087 0.367481   
     length 2.54621  
     axis 0 0 0  XYZ 
  end
  begin
     id 7 
     name rfemur
     direction -0.34202 -0.939693 0   
     length 6.55353   
     axis 0 0 -20   XYZ
    dof rx ry rz
    limits (-160.0 20.0)
           (-70.0 70.0)
           (-70.0 60.0)
  end
  begin
     id 8 
     name rtibia
     direction -0.34202 -0.939693 0   
     length 6.8736   
     axis 0 0 -20   XYZ
    dof rx
    limits (-10.0 170.0)
 end
 begin
     id 9 
     name rfoot
     direction -0.0679995 -0.186827 0.980037   
     length 2.1218  
     axis -90 -7.62852e-016 -20   XYZ
    dof rx rz
    limits (-45.0 90.0)
           (-20.0 70.0)
  end
  begin
     id 10 
     name rtoes
     direction -1.53589e-011 -4.21772e-011 1   
     length 1.06864   
     axis -90 -7.62852e-016 -20   XYZ
    dof rx
    limits (-90.0 20.0)
  end
  begin
     id 11 
     name lowerback
     direction -0.0416607 0.996347 -0.0745409   
     length 2.12205   
     axis 0 0 0   XYZ
    dof rx ry rz
    limits (-20.0 45.0)
           (-30.0 30.0)
           (-30.0 30.0)
  end
  begin
     id 12 
     name upperback
     direction -0.000153993 0.999276 -0.0380568   
     length 2.12759   
     axis 0 0 0   XYZ
    dof rx ry rz
    limits (-20.0 45.0)
           (-30.0 30.0)
           (-30.0 30.0)
  end
  begin
     id 13 
     name thorax
     direction 0.0187671 0.999821 -0.00241421   
     length 2.13704   
     axis 0 0 0   XYZ
    dof rx ry rz
    limits (-20.0 45.0)
           (-30.0 30.0)
           (-30.0 30.0)
  end
  begin
     id 14 
     name lowerneck
     direction 0.0268157 0.964865 0.261374   
     length 1.65253   
     axis 0 0 0   XYZ
    dof rx ry rz
    limits (-20.0 45.0)
           (-30.0 30.0)
           (-30.0 30.0)
  end
  begin
     id 15 
     name upperneck
     direction 0.00263774 0.939908 -0.341418   
     length 1.72375   
     axis 0 0 0   XYZ
    dof rx ry rz
    limits (-20.0 45.0)
           (-30.0 30.0)
           (-30.0 30.0)
  end
  begin
     id 16
     name head
     direction -0.00526001 0.989001 -0.147818  
     length 1.74878  
     axis 0 0 0   XYZ
    dof rx ry rz
    limits (-20.0 45.0)
           (-30.0 30.0)
           (-30.0 30.0)
  end
  begin
     id 17 
     name lclavicle
     direction 0.881214 0.461162 -0.103884  
     length 3.25108  
     axis 0 0 0   XYZ
    dof ry rz
    limits (-20.0 10.0)
           (0.0 20.0)
  end
  begin
     id 18 
     name lhumerus
     direction 1 -4.4899e-011 3.38092e-027   
     length 4.87408   
     axis 180 -30 -90   XYZ
    dof rx ry rz
    limits (-60.0 90.0)
           (-90.0 90.0)
           (-90.0 90.0)
  end
  begin
     id 19
     name lradius
     direction 1 -4.48931e-011 9.96288e-027   
     length 2.76729   
     axis 180 -30 -90   XYZ
    dof rx
    limits (-10.0 170.0)
  end
  begin
     id 20
     name lwrist
     direction 1 -4.4896e-011 1.50617e-026   
     length 1.38364   
     axis -9.31234e-015 90 90   XYZ
    dof ry
    limits (-180.0 0.0)
 end
  begin
     id 21 
     name lhand
     direction 1 -4.49038e-011 3.01286e-026   
     length 0.98922   
     axis -1.92217e-014 90 90   XYZ
    dof rx rz
    limits (-90.0 90.0)
           (-45.0 45.0)
  end
  begin
     id 22 
     name lfingers
     direction 1 -4.49051e-011 6.02588e-026   
     length 0.797535   
     axis -3.84436e-014 90 90   XYZ
    dof rx
    limits (0.0 90.0)
  end
  begin
     id 23
     name lthumb
     direction 0.707107 -6.34901e-011 0.707107   
     length 1.14511   
     axis -90 45 2.19363e-014   XYZ
    dof rx rz
    limits (-45.0 45.0)
           (-45.0 45.0)
  end
  begin
     id 24 
     name rclavicle
     direction -0.893894 0.441652 -0.0767889   
     length 3.29361  
     axis 0 0 0   XYZ 
    dof ry rz
    limits (-10.0 20.0)
           (-20.0 0.0)
  end
  begin
     id 25 
     name rhumerus
     direction -1 -4.48945e-011 8.0491e-028  
     length 4.71404   
     axis 180 30 90   XYZ
    dof rx ry rz
    limits (-90.0 60.0)
           (-90.0 90.0)
           (-90.0 90.0)
  end
  begin
     id 26 
     name rradius
     direction -1 -4.48986e-011 9.27795e-027   
     length 2.83468   
     axis 180 30 90   XYZ
    dof rx
    limits (-10.0 170.0)
  end
  begin
     id 27 
     name rwrist
     direction -1 -4.49029e-011 1.5064e-026   
     length 1.41734   
     axis -9.31234e-015 -90 -90   XYZ
    dof ry
    limits (-180.0 0.0)
  end
  begin
     id 28
     name rhand
     direction -1 -4.48857e-011 3.01165e-026   
     length 0.868195   
     axis -1.92217e-014 -90 -90   XYZ
    dof rx rz
    limits (-90.0 90.0)
           (-45.0 45.0)
  end
  begin
     id 29
     name rfingers
     direction -1 -4.49048e-011 6.02585e-026   
     length 0.699961   
     axis -3.84436e-014 -90 -90   XYZ
    dof rx
    limits (0.0 90.0)
  end
  begin
     id 30
     name rthumb
     direction -0.707107 -6.34854e-011 0.707107   
     length 1.00501   
     axis -90 -45 -2.19363e-014   XYZ
    dof rx rz
    limits (-45.0 45.0)
           (-45.0 45.0)
  end
:hierarchy
  begin
    root lhipjoint rhipjoint lowerback
    lhipjoint lfemur
    lfemur ltibia
    ltibia lfoot
    lfoot ltoes
    rhipjoint rfemur
    rfemur rtibia
    rtibia rfoot
    rfoot rtoes
    lowerback upperback
    upperback thorax
    thorax lowerneck lclavicle rclavicle
    lowerneck upperneck
    upperneck head
    lclavicle lhumerus
    lhumerus lradius
    lradius lwrist
    lwrist lhand lthumb
    lhand lfingers
    rclavicle rhumerus
    rhumerus rradius
    rradius rwrist
    rwrist rhand rthumb
    rhand rfingers
  end

#!OML:ASF H:\ManfredObstacles\Project 1\Capture day 2\Session 1\male.ASF
:FULLY-SPECIFIED
:DEGREES
128
root 9.21785 15.8314 -10.881 -171.502 -39.5393 183.614
lowerback -0.110298 -4.61307 -7.0581
upperback 0.331961 -6.13625 0.965811
thorax 1.25148 -3.12631 4.81496
lowerneck -30.7576 8.23654 8.91279
upperneck 40.1141 8.06237 -4.61349
head 23.3478 3.04412 -2.13563
rclavicle -4.75095e-014 3.4191e-014
rhumerus -66.9232 -3.03766 -80.7236
rradius 84.7409
rwrist 9.29906
rhand -7.32698 -0.869216
rfingers 7.12502
rthumb 18.5563 -30.0041
lclavicle -4.75095e-014 3.4191e-014
lhumerus -42.939 -30.1727 99.6256
lradius 98.6559
lwrist -22.9441
lhand -15.9627 3.15165
lfingers 7.12502
lthumb 10.2362 32.8826
rfemur -46.9256 2.92597 13.9019
rtibia 67.1461
rfoot 1.94574 -22.4951
rtoes -17.8536
lfemur -1.83854 -6.29738 -33.1146
ltibia 27.6277
lfoot 4.07062 7.24923
ltoes -10.5327
129
root 9.03867 15.9505 -11.1128 -171.197 -40.2823 183.772
lowerback -0.40796 -5.01138 -7.01962
upperback 0.1187 -6.65197 1.17994
thorax 1.28879 -3.38029 4.97487
lowerneck -30.4243 8.44372 9.17918
upperneck 40.2041 8.3023 -4.76276
head 23.3918 3.14197 -2.212
rclavicle -3.26007e-014 5.32743e-014
rhumerus -67.7031 -3.12008 -80.5017
rradius 85.0723
rwrist 8.52373
rhand -7.72752 -0.857228
rfingers 7.12502
rthumb 18.171 -30.0285
lclavicle -3.26007e-014 5.32743e-014
lhumerus -43.2847 -30.5905 99.6398
lradius 98.9787
lwrist -23.0809
lhand -15.895 2.90516
lfingers 7.12502
lthumb 10.3015 32.6329
rfemur -47.2075 3.02862 14.1332
rtibia 63.4913
rfoot 2.47972 -22.124
rtoes -18.1057
lfemur -0.791117 -5.93416 -32.5348
ltibia 25.9679
lfoot 6.19506 4.7372
ltoes -11.0653
130
root 8.85521 16.0658 -11.3471 -170.908 -40.9893 183.922
lowerback -0.741811 -5.37172 -6.96626
upperback -0.071134 -7.11552 1.38028
thorax 1.36233 -3.61053 5.10554
lowerneck -30.1441 8.61497 9.38879
upperneck 40.3024 8.50042 -4.87639
head 23.4473 3.22118 -2.27003
rclavicle -1.8487e-014 -1.35174e-014
rhumerus -68.4559 -3.21543 -80.2864
rradius 85.4328
rwrist 7.80454
rhand -8.08619 -0.838781
rfingers 7.12502
rthumb 17.8259 -30.0418
lclavicle -1.8487e-014 -1.35174e-014
lhumerus -43.6555 -31.021 99.6539
lradius 99.3125
lwrist -23.1378
lhand -15.8404 2.74875
lfingers 7.12502
lthumb 10.3541 32.4738
rfemur -47.326 3.13867 14.3461
rtibia 59.7775
rfoot 3.09812 -21.5332
rtoes -18.5199
lfemur 0.238567 -5.5189 -31.9533
ltibia 24.3315
lfoot 8.62709 2.41941
ltoes -10.9936
131
root 8.6679 16.1757 -11.5842 -170.649 -41.6427 184.085
lowerback -1.12044 -5.67856 -6.87911
upperback -0.234809 -7.5058 1.56616
thorax 1.47314 -3.80626 5.19633
lowerneck -29.926 8.75152 9.57101
upperneck 40.3936 8.65618 -4.98185
head 23.5101 3.28364 -2.32935
rclavicle -6.97734e-014 1.11319e-014
rhumerus -69.1852 -3.37398 -80.0377
rradius 85.8227
rwrist 7.27301
rhand -8.32484 -0.800819
rfingers 7.12502
rthumb 17.5963 -30.0245
lclavicle -6.97734e-014 1.11319e-014
lhumerus -44.0303 -31.494 99.6685
lradius 99.6511
lwrist -23.0851
lhand -15.7895 2.67625
lfingers 7.12502
lthumb 10.4032 32.3989
rfemur -47.3067 3.28871 14.5521
rtibia 56.0534
rfoot 3.84617 -20.6574
rtoes -19.1045
lfemur 1.23971 -5.06449 -31.3654
ltibia 22.7589
lfoot 11.3558 0.425347
ltoes -10.2225
132
root 8.47692 16.2786 -11.8225 -170.391 -42.2295 184.213
lowerback -1.53733 -5.93575 -6.79147
upperback -0.368758 -7.82804 1.72914
thorax 1.62402 -3.97022 5.25754
lowerneck -29.7857 8.86052 9.70803
upperneck 40.4806 8.7861 -5.07005
head 23.587 3.33314 -2.37631
rclavicle -8.15017e-015 5.56597e-015
rhumerus -69.8714 -3.55399 -79.7658
rradius 86.2228
rwrist 6.93187
rhand -8.45705 -0.735027
rfingers 7.12502
rthumb 17.469 -29.9701
lclavicle -8.15017e-015 5.56597e-015
lhumerus -44.3879 -31.9639 99.6705
lradius 100.004
lwrist -22.9699
lhand -15.7156 2.68308
lfingers 7.12502
lthumb 10.4745 32.4021
rfemur -47.1822 3.48039 14.707
rtibia 52.3819
rfoot 4.72907 -19.4726
rtoes -19.7838
lfemur 2.20127 -4.57704 -30.8272
ltibia 21.2942
lfoot 14.3057 -1.19942
ltoes -8.75875
133
root 8.28316 16.3726 -12.0604 -170.131 -42.7393 184.3
lowerback -1.98056 -6.13874 -6.69868
upperback -0.471141 -8.07679 1.8639
thorax 1.80746 -4.09908 5.28365
lowerneck -29.7313 8.92994 9.75288
upperneck 40.5543 8.8843 -5.10974
head 23.6609 3.36459 -2.38499
rclavicle 4.25399e-014 1.59028e-015
rhumerus -70.5067 -3.7774 -79.4539
rradius 86.6354
rwrist 6.87657
rhand -8.40102 -0.650432
rfingers 7.12502
rthumb 17.5229 -29.8807
lclavicle 4.25399e-014 1.59028e-015
lhumerus -44.7102 -32.4365 99.6585
lradius 100.36
lwrist -22.7582
lhand -15.6438 2.75166
lfingers 7.12502
lthumb 10.5437 32.4672
rfemur -46.9878 3.70982 14.8158
rtibia 48.8337
rfoot 5.72301 -17.9951
rtoes -20.5126
lfemur 3.10416 -4.0579 -30.3521
ltibia 19.981
lfoot 17.3586 -2.4896
ltoes -6.79459
